<svg width="75" height="85" viewBox="0 0 75 85" fill="none" xmlns="http://www.w3.org/2000/svg">
<g id="Group 1681">
<rect id="Rectangle 607" x="1.70728" y="1" width="71.7072" height="83" rx="4" stroke="#D9D9D9" stroke-width="2"/>
<path id="Vector" opacity="0.5" d="M37.5598 24.6992C27.7127 24.6992 19.7532 32.6588 19.7532 42.5059C19.7532 52.353 27.7127 60.3125 37.5598 60.3125C47.4069 60.3125 55.3665 52.353 55.3665 42.5059C55.3665 32.6588 47.4069 24.6992 37.5598 24.6992ZM45.2167 50.1627C45.052 50.3278 44.8563 50.4588 44.6409 50.5481C44.4255 50.6375 44.1945 50.6835 43.9613 50.6835C43.7281 50.6835 43.4972 50.6375 43.2818 50.5481C43.0664 50.4588 42.8707 50.3278 42.706 50.1627L37.5598 45.0166L32.4137 50.1627C32.0808 50.4957 31.6292 50.6827 31.1583 50.6827C30.6875 50.6827 30.2359 50.4957 29.903 50.1627C29.57 49.8298 29.383 49.3782 29.383 48.9074C29.383 48.6742 29.4289 48.4434 29.5181 48.228C29.6073 48.0126 29.7381 47.8169 29.903 47.652L35.0491 42.5059L29.903 37.3598C29.57 37.0268 29.383 36.5752 29.383 36.1044C29.383 35.6335 29.57 35.182 29.903 34.849C30.2359 34.5161 30.6875 34.329 31.1583 34.329C31.6292 34.329 32.0808 34.5161 32.4137 34.849L37.5598 39.9951L42.706 34.849C42.8708 34.6842 43.0665 34.5534 43.2819 34.4642C43.4973 34.3749 43.7282 34.329 43.9613 34.329C44.1945 34.329 44.4253 34.3749 44.6407 34.4642C44.8561 34.5534 45.0518 34.6842 45.2167 34.849C45.3816 35.0139 45.5123 35.2096 45.6015 35.425C45.6908 35.6404 45.7367 35.8712 45.7367 36.1044C45.7367 36.3375 45.6908 36.5684 45.6015 36.7838C45.5123 36.9992 45.3816 37.1949 45.2167 37.3598L40.0706 42.5059L45.2167 47.652C45.8933 48.3287 45.8933 49.4683 45.2167 50.1627Z" fill="#808080"/>
</g>
</svg>
